<?xml version="1.0" encoding="UTF-8" standalone="no"?>
<svg
   viewBox="0 0 750 120"
   version="1.1"
   id="svg11"
   xmlns="http://www.w3.org/2000/svg"
   xmlns:svg="http://www.w3.org/2000/svg">
   <defs
      id="defs1">
      <style
         id="style1">
         @keyframes dash {
         0% {
         stroke-dashoffset: calc(var(--len) + 1px);
         }

         100% {
         stroke-dashoffset: 0;
         }
         }

         @keyframes stroke-width {
         0% {
         stroke-width: 2px;
         }

         100% {
         stroke-width: 6px;
         }
         }

         @keyframes fade {
         0% {
         opacity: 0;
         }

         100% {
         opacity: 1;
         }
         }

         @keyframes dot {
         0% {
         r: 0px;
         }

         100% {
         r: var(--r);
         }
         }

         .stroke {
         fill: none;
         stroke: #000000;
         stroke-linecap: round;
         stroke-linejoin: round;
         stroke-width: 2px;

         stroke-dasharray: calc(var(--len));
         stroke-dashoffset: calc(var(--len));
         animation: dash 1s cubic-bezier(0.8, 0, 0.2, 1) var(--delay) forwards,
         stroke-width 1s cubic-bezier(0.8, 0, 0.2, 1) calc(var(--delay) + 0.5s) forwards,
         fade 0.2s linear calc(var(--delay) + 0s) forwards;
         }

         .wait {
         visibility: hidden;
         opacity: 0;
         animation: fadeIn 1s forwards var(--delay);
         }

         @keyframes fadeIn {
         to {
         visibility: visible;
         opacity: 1;
         }
         }
      </style>
   </defs>
   <path
      d="m 117.84753,67.697673 8.80002,44.440107 h -25.96006 l -1.02667,-4.84002 -83.600194,3.81335 2.053338,-15.106705 27.42673,-37.840088 H 15.033957 L 16.940628,44.084284 H 139.84758 l -1.90667,14.080033 H 76.194099 L 50.380705,94.391068 96.72748,92.191063 91.887469,67.697673 Z M 136.1809,9.4708707 134.12757,23.844237 H 30.727326 L 32.780665,9.4708707 Z"
      id="text1"
      class="stroke"
      style="--len: 843.1032104492188px; --delay: 0.45s;"
      aria-label="云" />
   <path
      d="m 202.74555,107.00443 6.74668,-48.693446 h -3.96001 l -11.44003,53.973456 h -18.92004 l 17.30671,-80.373517 h -6.16002 l 1.76001,-13.346698 h 11.14669 l 1.02667,-6.306681 -4.10668,-5.1333454 h 25.08006 l -1.61334,11.4400264 h 13.05337 l -1.76001,13.346698 h -19.80004 l -2.64001,12.760029 h 21.26672 l -8.06669,57.640138 q -0.58667,4.25334 -3.37334,7.18668 -2.78667,2.78667 -6.89335,2.78667 h -14.2267 z m 71.42683,-29.040067 -12.9067,0.440001 -3.08,24.493386 q -0.58667,3.96001 -3.52001,6.74669 -2.93334,2.64 -6.89335,2.64 h -22.88006 l 15.10671,-13.200028 2.49334,-19.946713 -13.93337,0.440001 1.76,-12.613362 13.7867,-0.440001 0.88,-6.306682 9.24003,-10.120023 h -19.80005 l 1.76,-11.880028 h 38.57343 l -2.05334,14.520034 -9.38669,9.533355 -0.44,3.520009 13.05336,-0.440001 z M 232.22561,35.430931 242.93231,7.1241986 h 20.82671 l -3.81334,10.1200234 h 20.82671 l -1.76,12.320029 H 255.399 l -2.05334,5.86668 z m -85.06686,76.853509 12.0267,-41.360093 h 19.06671 l -12.0267,41.360093 z m 12.9067,-46.933439 -0.73334,-25.080059 h 19.06671 l 0.73334,25.080059 z m 4.25334,-30.653405 -0.73333,-25.0800583 h 19.06671 l 0.73333,25.0800583 z"
      id="text2"
      class="stroke"
      style="--len: 1217.53564453125px; --delay: 0.45s;"
      aria-label="游" />
   <path
      d="m 356.45214,23.110902 -16.13338,1.320003 -1.61333,12.026695 h 18.18671 l -2.05334,14.960035 h -18.33338 l -8.50668,61.013475 h -21.41339 l 8.50669,-61.013475 H 297.052 L 299.10534,36.4576 h 18.1867 l 1.46667,-10.413357 -17.16004,1.320003 2.05334,-14.960035 54.85346,-4.2533434 z m 58.52013,59.400138 -8.06668,1.173336 -4.10668,28.746734 h -23.17339 l 3.52001,-25.666726 -30.06674,4.106676 2.20001,-15.69337 30.06674,-4.106676 8.36001,-58.81347 -4.25334,-5.4266794 h 28.30673 l -8.65335,61.1601424 8.06669,-1.173336 z M 289.27865,107.1511 298.812,55.524311 h 14.52003 l -9.53335,51.626789 z m 43.41343,0 4.69334,-51.626789 h 14.52004 l -4.84001,51.626789 z m 49.42678,-40.626763 h -21.85338 l -2.64001,-19.360045 h 21.85339 z m 4.54668,-29.480069 h -21.85339 l -2.93334,-19.360045 h 21.85339 z"
      id="text3"
      class="stroke"
      style="--len: 1164.2979736328125px; --delay: 0.45s;"
      aria-label="科" />
   <path
      d="m 510.60312,34.248901 2.78667,-19.066711 -4.98667,-9.5333551 h 34.17341 l -4.10668,28.6000661 h 17.60004 l -2.64,18.920044 h -17.60004 l -5.42668,37.546754 h 20.82671 l -2.49334,17.453371 h -69.52016 l 2.49334,-17.453371 h 20.97338 l 5.28001,-37.546754 h -18.1867 l 2.64,-18.920044 z m -32.56007,60.720141 -11.29336,-14.226699 -4.25335,30.360067 h -22.00005 l 4.84001,-34.320077 h -14.2267 l 30.50674,-39.746759 h -23.32005 l 1.76,-13.053363 h 44.14677 l -2.49334,17.306707 -11.73336,15.986703 -0.14667,1.02667 11.44003,14.226699 z m 1.90667,-74.213505 h -23.61339 l -3.22668,-11.29336 -3.22667,-3.5200081 h 26.25339 z"
      id="text4"
      class="stroke"
      style="--len: 836.7227172851562; --delay: 0.45s;"
      aria-label="社" />
   <path
      d="m 573.81619,29.226479 q -2.66667,0 -4.21334,-1.493335 -1.54667,-1.493335 -1.54667,-4.106672 v -8.800011 q 0,-2.613337 1.54667,-4.106672 1.54667,-1.4933351 4.21334,-1.4933351 2.61333,0 4.16,1.5200021 1.54667,1.493335 1.54667,4.080005 h -2.4 q 0,-1.653335 -0.88,-2.533337 -0.85334,-0.906667 -2.42667,-0.906667 -1.57334,0 -2.48001,0.906667 -0.88,0.880002 -0.88,2.533337 v 8.800011 q 0,1.653336 0.88,2.560003 0.90667,0.880001 2.48001,0.880001 1.57333,0 2.42667,-0.880001 0.88,-0.906667 0.88,-2.560003 h 2.4 q 0,2.58667 -1.54667,4.106672 -1.54667,1.493335 -4.16,1.493335 z m 17.92003,-0.266667 q -1.94667,0 -3.12,-1.120001 -1.14667,-1.146668 -1.14667,-3.013337 V 11.67979 h -5.06667 V 9.4931209 h 7.46667 V 24.826474 q 0,0.906667 0.50667,1.440001 0.50667,0.506668 1.36,0.506668 h 4.53334 v 2.186669 z m 13.8667,0.213334 q -2.64001,0 -4.21334,-1.546669 -1.54667,-1.546668 -1.54667,-4.320005 v -3.360005 q 0,-2.800003 1.54667,-4.320005 1.54667,-1.546669 4.21334,-1.546669 2.66667,0 4.21333,1.546669 1.54667,1.520002 1.54667,4.320005 v 3.360005 q 0,2.773337 -1.57333,4.320005 -1.54667,1.546669 -4.18667,1.546669 z m 0,-2.133336 q 1.57333,0 2.45333,-0.880001 0.90667,-0.880001 0.90667,-2.58667 V 19.6798 q 0,-1.706668 -0.90667,-2.586669 -0.88,-0.880002 -2.45333,-0.880002 -1.54667,0 -2.45334,0.880002 -0.90667,0.880001 -0.90667,2.586669 v 3.893339 q 0,1.706669 0.90667,2.58667 0.90667,0.880001 2.45334,0.880001 z m 15.97336,2.186669 q -2.53334,0 -4.05334,-1.493335 -1.52,-1.520002 -1.52,-4.106672 v -9.333345 h 2.4 v 9.333345 q 0,1.600002 0.85334,2.560003 0.85333,0.933335 2.32,0.933335 1.49333,0 2.34667,-0.933335 0.88,-0.960001 0.88,-2.560003 v -9.333345 h 2.4 v 9.333345 q 0,2.58667 -1.54667,4.106672 -1.54666,1.493335 -4.08,1.493335 z m 15.17336,0 q -2.18667,0 -3.52,-1.466668 -1.30667,-1.466669 -1.30667,-3.973339 v -4.293338 q 0,-2.533337 1.30667,-4.000006 1.30667,-1.466668 3.52,-1.466668 1.65334,0 2.72001,0.826668 1.09333,0.826667 1.30666,2.240003 h 0.0267 l -0.0533,-3.333338 V 9.4931209 h 2.4 V 28.959812 h -2.4 v -2.800003 h -0.0267 q -0.18667,1.440001 -1.25333,2.266669 -1.06667,0.800001 -2.72001,0.800001 z m 0.8,-2.080002 q 1.49334,0 2.34667,-0.933335 0.85334,-0.933334 0.85334,-2.58667 v -4.000005 q 0,-1.653335 -0.85334,-2.58667 -0.85333,-0.933334 -2.34667,-0.933334 -1.52,0 -2.37333,0.800001 -0.85334,0.773334 -0.85334,2.58667 v 4.266672 q 0,1.786669 0.85334,2.58667 0.85333,0.800001 2.37333,0.800001 z"
      id="text5"
      class="wait"
      style="--delay: 1.0s;"
      aria-label="Cloud" />
   <path
      d="m 569.04718,56.737587 -2.32,-19.466691 h 2.21334 l 1.52,14.400018 q 0.10667,0.880001 0.16,1.840002 0.0533,0.933335 0.08,1.493335 0.0533,-0.56 0.13333,-1.493335 0.10667,-0.960001 0.21334,-1.840002 l 1.92,-14.400018 h 2.58667 l 1.76,14.400018 q 0.10667,0.880001 0.21334,1.840002 0.10666,0.933335 0.16,1.493335 0.0533,-0.56 0.10666,-1.493335 0.08,-0.960001 0.18667,-1.840002 l 1.57333,-14.400018 h 2.10667 l -2.37333,19.466691 h -3.01334 l -1.76,-14.666685 q -0.10667,-0.906668 -0.16,-1.760002 -0.0533,-0.880002 -0.10667,-1.360002 -0.0533,0.48 -0.10667,1.360002 -0.0533,0.853334 -0.18666,1.760002 l -1.89334,14.666685 z m 15.41337,0 v -2.186669 h 5.2 V 44.257571 h -4.66667 v -2.186669 h 7.06668 v 12.480016 h 4.93334 v 2.186669 z m 6.13334,-17.306689 q -0.88,0 -1.38667,-0.453333 -0.50667,-0.453334 -0.50667,-1.226669 0,-0.800001 0.50667,-1.253335 0.50667,-0.48 1.38667,-0.48 0.88,0 1.38667,0.48 0.50666,0.453334 0.50666,1.253335 0,0.773335 -0.50666,1.226669 -0.50667,0.453333 -1.38667,0.453333 z m 17.0667,17.306689 q -1.81334,0 -2.90667,-1.040001 -1.09334,-1.066668 -1.09334,-2.826671 v -8.613344 h -4.21334 v -2.186669 h 4.21334 v -4.133339 h 2.40001 v 4.133339 h 6 v 2.186669 h -6 v 8.613344 q 0,0.746668 0.42666,1.226669 0.45334,0.453334 1.17334,0.453334 h 4.26667 v 2.186669 z m 8.98669,0 V 37.270896 h 2.4 v 7.600009 h 0.0267 q 0.18666,-1.466668 1.2,-2.266669 1.01333,-0.800001 2.69333,-0.800001 2.21334,0 3.52001,1.360001 1.30667,1.360002 1.30667,3.706672 v 9.866679 h -2.40001 v -9.466679 q 0,-1.653335 -0.85333,-2.533336 -0.82667,-0.906668 -2.26667,-0.906668 -1.49334,0 -2.37334,0.933335 -0.85333,0.933334 -0.85333,2.640003 v 9.333345 z"
      id="text6"
      class="wait"
      style="--delay: 1.2s;"
      aria-label="With" />
   <path
      d="M 571.81179,85.106384 V 67.826362 h -5.33334 v -2.186669 h 13.06668 v 2.186669 h -5.33334 v 17.280022 z m 17.20003,0.266667 q -2.58667,0 -4.18667,-1.546668 -1.57334,-1.573336 -1.57334,-4.320006 v -3.466671 q 0,-2.74667 1.57334,-4.293339 1.6,-1.573335 4.18667,-1.573335 1.73334,0 3.01334,0.693334 1.30667,0.693334 2.02667,1.946669 0.72,1.253335 0.72,2.960004 v 2.613337 h -9.17335 v 1.386668 q 0,1.626669 0.93334,2.58667 0.93333,0.933335 2.48,0.933335 1.33334,0 2.18667,-0.506668 0.88,-0.533334 1.06667,-1.413335 h 2.4 q -0.24,1.840003 -1.78667,2.933337 -1.54667,1.066668 -3.86667,1.066668 z m -3.41334,-8.853344 h 6.82668 v -0.746668 q 0,-1.733335 -0.90667,-2.66667 -0.88,-0.960001 -2.50667,-0.960001 -1.62667,0 -2.53334,0.960001 -0.88,0.933335 -0.88,2.66667 z m 19.6267,8.853344 q -2.66667,0 -4.26667,-1.493335 -1.6,-1.493335 -1.6,-4.106672 v -4.000005 q 0,-2.613336 1.6,-4.106672 1.6,-1.493335 4.26667,-1.493335 2.53334,0 4.08001,1.360002 1.57334,1.360002 1.65334,3.706671 h -2.40001 q -0.08,-1.413335 -0.96,-2.160003 -0.88,-0.773334 -2.37334,-0.773334 -1.57333,0 -2.53333,0.906668 -0.93334,0.880001 -0.93334,2.533336 v 4.026672 q 0,1.653336 0.93334,2.560003 0.96,0.906668 2.53333,0.906668 1.49334,0 2.37334,-0.773334 0.88,-0.773334 0.96,-2.160003 h 2.40001 q -0.08,2.34667 -1.65334,3.706672 -1.54667,1.360001 -4.08001,1.360001 z m 10.24003,-0.266667 V 65.639693 h 2.4 v 7.60001 h 0.0267 q 0.18666,-1.466669 1.2,-2.26667 1.01333,-0.800001 2.69334,-0.800001 2.21333,0 3.52,1.360002 1.30667,1.360002 1.30667,3.706671 v 9.866679 h -2.4 v -9.466678 q 0,-1.653336 -0.85334,-2.533337 -0.82667,-0.906668 -2.26667,-0.906668 -1.49333,0 -2.37333,0.933335 -0.85334,0.933334 -0.85334,2.640003 v 9.333345 z m 17.84003,4.800006 v -2.186669 h 4.13334 q 1.25333,0 1.97333,-0.720001 0.72001,-0.693334 0.72001,-1.893336 v -1.333335 l 0.0533,-2.400003 h -0.08 q -0.21333,1.306669 -1.25334,2.026669 -1.04,0.693335 -2.61333,0.693335 -2.26667,0 -3.57334,-1.440002 -1.30667,-1.440002 -1.30667,-3.946672 v -3.093337 q 0,-2.50667 1.30667,-3.973338 1.30667,-1.466669 3.57334,-1.466669 1.57333,0 2.61333,0.746668 1.04001,0.746667 1.25334,2.053336 h 0.0533 v -2.533337 h 2.37334 v 14.666685 q 0,2.213336 -1.38667,3.493338 -1.36,1.306668 -3.73334,1.306668 z m 3.65334,-7.813343 q 1.49333,0 2.34667,-0.933334 0.85333,-0.933335 0.85333,-2.58667 v -2.800004 q 0,-1.653335 -0.85333,-2.58667 -0.85334,-0.933334 -2.34667,-0.933334 -1.52,0 -2.37334,0.880001 -0.82667,0.880001 -0.82667,2.373336 v 3.333338 q 0,1.493335 0.82667,2.373336 0.85334,0.880001 2.37334,0.880001 z m 14.77336,3.280004 q -2.26667,0 -3.6,-1.253335 -1.33334,-1.280001 -1.33334,-3.333337 0,-1.360002 0.61334,-2.373337 0.61333,-1.013334 1.70666,-1.573335 1.09334,-0.586667 2.50667,-0.586667 h 4.53334 v -1.146668 q 0,-2.853337 -3.12,-2.853337 -1.38667,0 -2.24,0.506667 -0.85334,0.506667 -0.90667,1.413335 h -2.4 q 0.13333,-1.733335 1.6,-2.853337 1.49333,-1.146668 3.94667,-1.146668 2.66667,0 4.08,1.280002 1.44001,1.280001 1.44001,3.573338 v 10.080012 h -2.37334 v -2.66667 h -0.0533 q -0.21334,1.360002 -1.36001,2.160003 -1.14666,0.773334 -3.04,0.773334 z m 0.58667,-2.026669 q 1.76,0 2.8,-0.853334 1.04,-0.853335 1.04,-2.320003 v -2.053336 h -4.26667 q -1.17333,0 -1.92,0.720001 -0.72,0.693334 -0.72,1.866669 0,1.226668 0.8,1.946669 0.82667,0.693334 2.26667,0.693334 z m 10.29335,1.760002 V 70.439699 h 2.08001 v 1.946669 h 0.0533 q 0.13333,-0.986668 0.77334,-1.600002 0.66666,-0.613334 1.68,-0.613334 0.96,0 1.62667,0.560001 0.66666,0.56 0.96,1.520002 h 0.0267 q 0.18667,-0.960002 0.82667,-1.520002 0.66667,-0.560001 1.68,-0.560001 1.41334,0 2.24001,1.066668 0.85333,1.040001 0.85333,2.720004 v 11.14668 h -2.24 V 73.933037 q 0,-0.880001 -0.42667,-1.386669 -0.42667,-0.533334 -1.17333,-0.533334 -0.72,0 -1.14667,0.506668 -0.42667,0.506667 -0.42667,1.386668 v 11.200014 h -1.97333 V 73.933037 q 0,-0.880001 -0.42667,-1.386669 -0.42667,-0.533334 -1.14667,-0.533334 -0.74667,0 -1.17334,0.506668 -0.42666,0.506667 -0.42666,1.386668 v 11.200014 z m 22.40004,0.266667 q -2.58667,0 -4.18667,-1.546668 -1.57333,-1.573336 -1.57333,-4.320006 v -3.466671 q 0,-2.74667 1.57333,-4.293339 1.6,-1.573335 4.18667,-1.573335 1.73334,0 3.01334,0.693334 1.30667,0.693334 2.02667,1.946669 0.72,1.253335 0.72,2.960004 v 2.613337 h -9.17334 v 1.386668 q 0,1.626669 0.93333,2.58667 0.93333,0.933335 2.48,0.933335 1.33334,0 2.18667,-0.506668 0.88,-0.533334 1.06667,-1.413335 h 2.4 q -0.24,1.840003 -1.78666,2.933337 -1.54667,1.066668 -3.86668,1.066668 z m -3.41333,-8.853344 h 6.82667 v -0.746668 q 0,-1.733335 -0.90667,-2.66667 -0.88,-0.960001 -2.50667,-0.960001 -1.62667,0 -2.53333,0.960001 -0.88,0.933335 -0.88,2.66667 z"
      id="text7"
      class="wait"
      style="--delay: 1.4s;"
      aria-label="Techgame" />
   <path
      d="m 573.22518,113.74186 q -2.66667,0 -4.21333,-1.49334 -1.54667,-1.49333 -1.54667,-4.10667 v -8.800012 q 0,-2.613337 1.54667,-4.106672 1.54666,-1.493335 4.21333,-1.493335 2.61334,0 4.16001,1.520002 1.54667,1.493335 1.54667,4.080005 h -2.4 q 0,-1.653335 -0.88001,-2.533337 -0.85333,-0.906667 -2.42667,-0.906667 -1.57333,0 -2.48,0.906667 -0.88,0.880002 -0.88,2.533337 v 8.800012 q 0,1.65333 0.88,2.56 0.90667,0.88 2.48,0.88 1.57334,0 2.42667,-0.88 0.88001,-0.90667 0.88001,-2.56 h 2.4 q 0,2.58667 -1.54667,4.10667 -1.54667,1.49334 -4.16001,1.49334 z m 17.92004,-0.26667 q -1.94667,0 -3.12001,-1.12 -1.14666,-1.14667 -1.14666,-3.01334 V 96.195167 h -5.06668 v -2.186669 h 7.46668 v 15.333352 q 0,0.90667 0.50667,1.44 0.50666,0.50667 1.36,0.50667 h 4.53334 v 2.18667 z m 13.84003,0.26667 q -2.53334,0 -4.05334,-1.49334 -1.52001,-1.52 -1.52001,-4.10667 v -9.333346 h 2.40001 v 9.333346 q 0,1.6 0.85333,2.56 0.85334,0.93334 2.32001,0.93334 1.49333,0 2.34666,-0.93334 0.88001,-0.96 0.88001,-2.56 v -9.333346 h 2.4 v 9.333346 q 0,2.58667 -1.54667,4.10667 -1.54667,1.49334 -4.08,1.49334 z m 16.88003,0 q -1.65334,0 -2.72001,-0.8 -1.06666,-0.82667 -1.25333,-2.26667 h -0.0267 v 2.8 h -2.4 V 94.008498 h 2.4 v 4.266672 l -0.0533,3.33334 h 0.0267 q 0.21333,-1.41334 1.28,-2.240005 1.09333,-0.826668 2.74667,-0.826668 2.21333,0 3.52,1.466673 1.30667,1.46666 1.30667,4 v 4.29334 q 0,2.50667 -1.30667,3.97334 -1.30667,1.46667 -3.52,1.46667 z m -0.8,-2.08001 q 1.52,0 2.37333,-0.8 0.85334,-0.8 0.85334,-2.58667 v -4.26667 q 0,-1.81334 -0.85334,-2.58667 -0.85333,-0.8 -2.37333,-0.8 -1.46667,0 -2.34667,0.93333 -0.85334,0.93334 -0.85334,2.58667 v 4.00001 q 0,1.65333 0.85334,2.58667 0.88,0.93333 2.34667,0.93333 z"
      id="text8"
      class="wait"
      style="--delay: 1.6s;"
      aria-label="Club" />
</svg>